<?xml version="1.0" encoding="UTF-8"?>
<svg id="_레이어_1" data-name="레이어 1" xmlns="http://www.w3.org/2000/svg" viewBox="0 0 595.28 595.27">
  <defs>
    <style>
      .cls-1, .cls-2 {
        fill: #fff;
      }

      .cls-3 {
        fill: #3d2e28;
      }

      .cls-4 {
        fill: #503328;
      }

      .cls-2 {
        opacity: .15;
      }
    </style>
  </defs>
  <circle class="cls-2" cx="297.64" cy="297.63" r="241.99"/>
  <circle class="cls-2" cx="297.64" cy="297.63" r="214.64"/>
  <circle class="cls-2" cx="297.64" cy="297.63" r="187.05"/>
  <g>
    <g>
      <path class="cls-3" d="M183.3,276.03c13.61,1.9,26.1-1.95,37.39-9.53,16.02-10.75,24.77-26.6,31.26-44.23,2.38-6.48,5.89-12.7,9.81-18.41,3.98-5.8,10.39-8.51,17.35-9,1.74-.12,4.09,.58,5.45,1.71h-4.59v10.11h1.43c-.73,.79-1.5,1.56-2.24,2.33-3.96,4.07-8.37,7.77-11.98,12.12-5.61,6.75-11.17,13.62-15.87,21.01-3.61,5.66-4.35,12.39-2.16,19.03,1.32,3.98,4.59,4.65,7.52,1.61,.91-.95,1.54-2.19,2.2-3.35,3.94-6.91,10.32-8.7,16.95-4.44,4.23,2.72,8.69,3.9,13.63,3.22,7.61-1.05,14.38-4.03,19.98-9.34,12.78-12.13,20.31-27.6,22.87-44.42,.08-.54,.1-2.22-.27-3.08-.37-.85-1.89-2.03-3.19-2.38-1.24-.33-2.96,.28-4.11,1.37-1.24,1.18-1.83,3.04-2.77,4.56-7.28,11.78-18.05,16.98-31.67,16.55-1.44-.05-3.76-.95-4.05-1.94-.41-1.36,.38-3.42,1.29-4.75,1.24-1.82,3.04-3.27,4.65-4.83,3.63-3.55,7.45-6.94,10.91-10.66,8.05-8.67,13.36-18.68,14.06-30.74,.31-5.3-1.09-5.99-5.9-4.28-4.7,1.67-9.71,3.2-14.64,3.38-9.64,.36-19.08,.54-27.58,6.13-1.31,.86-4.71,.45-5.81-.68-2.35-2.4-4.94-4.32-7.73-2.56-2,1.26-3.33,4.79-4.01,7.35-.27,1-.31,1.72-.48,2.9-1.27,8.55-2.28,17.16-3.91,25.64-2.81,14.67-12.3,23.12-26.42,26.62-5.05,1.25-10.2,2.7-15.6,2.68-3.84-.02-7.75-.86-11.35-2.1-7.69-2.65-9.95-11.85-4.42-17.88,1.18-1.28,4.06-2.17,5.68-1.67,8.56,2.6,16.6,1.22,24.36-2.49,6.75-3.23,9.12-8.74,7.36-15.96-.88-3.63-2.76-5.42-6.81-4.22-5.29,1.57-10.61,3.13-16.02,4.15-2.08,.39-4.79-.11-6.6-1.22-5.5-3.35-7.56-9.81-5.66-16.06,2.1-6.9,9.31-11.46,18.03-11.37,6.28,.06,9.92,3.11,11.96,10.03,1.69,5.74,5.58,7.06,10.2,3.22,1.67-1.39,3.13-3.27,4.09-5.23,7.6-15.53-3.95-36.21-21.1-37.82-12.47-1.17-24.08,1.71-34.66,8.33-8.35,5.22-13.76,12.62-15.73,22.45-2.66,13.32,2.1,24.52,13.61,31.65,.8,.49,2.04,1.24,1.94,2.22-.14,1.38-2.07,2.05-3.32,2.5-15.65,5.63-23.49,16.29-23.82,32.61-.43,20.94,11.43,36.51,30.51,39.17Z"/>
      <path class="cls-3" d="M237.5,294.09c-30.09-3.98-58.13,2.6-82.05,21.95-14.23,11.52-22.06,26.7-19.36,45.7,1.46,10.25,6.33,18.39,16.89,21.64,9.05,2.79,20.24-1.16,26.43-9.13,3.31-4.26,5.41-9.03,4.34-14.55-.25-1.29-1.6-2.9-2.63-3.38-3.65-1.7-6.04-3.95-6.62-7.96-1.31-9.09,3.28-17.01,13.21-22.3,10.63-5.67,22.13-8.23,34.09-8.15,14.88,.1,22.78,8.07,22.85,22.3,.07,12.23-7.77,21.6-19.03,22.77-4.88,.51-7.16-1.38-7.09-6.16,.04-2.83,.34-5.66,.71-8.47,.61-4.59,1.56-9.13,2.02-13.73,.37-3.63-.94-6.52-5.03-7.22-7.04-1.21-12.96,2.42-14.66,9.35-1.43,5.79-2.52,11.67-3.64,17.54-2.27,11.9-4.44,23.83-11.64,34.03-3.86,5.47-8.44,10.1-15.08,12.12-7.73,2.35-15.41-.65-18.33-7.13-2.48-5.52-3.32-5.9-8.93-3.28-1.99,.93-3.96,2.18-5.55,3.68-8.38,7.91-10.09,17.94-8.65,28.81,2.1,15.88,14.01,26.02,29.97,25.34,15.15-.65,25.96-8.86,34.43-20.69,7.7-10.75,11.88-22.99,14.76-35.77,1.51-6.69,3.61-7.57,10.25-5.8,3.54,.94,7.39,1.64,10.99,1.3,25.34-2.36,43.6-21.63,43.84-47.12,.2-21.36-9.69-42.13-36.51-45.68Z"/>
      <path class="cls-3" d="M509.49,330.33c-3.24-1.2-5.52-.22-7.31,3.06-2.56,4.69-5.33,9.39-8.82,13.37-1.63,1.85-5.67,3.35-7.7,2.58-1.97-.75-3.85-4.62-3.83-7.1,.05-5.61,1.18-11.24,2.09-16.82,1.17-7.21,2.9-14.35,3.72-21.6,.43-3.79-.17-8.09-4.71-9.71-4.44-1.59-8.25,.08-11.3,3.38-1.4,1.51-2.64,3.29-3.51,5.15-1.39,2.96-2.8,6-3.53,9.16-1.98,8.57-3.46,17.26-5.41,25.83-1.77,7.74-5.99,11.66-12.78,12.53-4.52,.57-7.05-.89-7.79-5.31-.58-3.48-.62-7.13-.38-10.66,.58-8.61,2-17.2,2.04-25.81,.03-7.24-5.86-9.78-11.3-4.86-3.5,3.17-6.61,7.58-8.08,12.03-2.88,8.74-4.23,17.97-6.75,26.85-1.18,4.16-3.03,8.4-5.61,11.82-2.86,3.8-7.63,5.22-12.15,3.33-4.55-1.9-4.38-6.62-3.74-10.56,1.06-6.61,2.83-13.1,4.25-19.65,.76-3.49,1.89-6.99,2.01-10.51,.25-7.58-4.92-10.65-11.54-6.92-2.28,1.29-4.18,3.35-6.04,5.26-2.8,2.87-5.53,3.14-9.25,1.41-3.26-1.51-7.07-2.62-10.62-2.59-9.88,.08-18.19,4.3-24.96,11.42-9.23,9.7-13.26,21.79-15.46,34.65-1.22,7.13-6.64,12.8-13.39,13.88-4.77,.76-8.18-1.05-9.04-5.76-.74-4.04-.86-8.32-.48-12.43,1.7-18.52,6.49-36.4,11.66-54.2,1.11-3.83,2-7.87,2.09-11.83,.13-5.62-4.17-8.9-9.29-6.7-3.45,1.48-7.11,4.32-8.86,7.54-3.03,5.56-5.46,11.72-6.71,17.91-4.26,21.06-8.06,42.22-11.7,63.4-1.85,10.78-2.44,21.72-.05,32.54,2.33,10.55,9.77,15.16,20.3,13.03,11.2-2.27,17.48-10.22,22.63-19.48,1.26-2.26,2.34-4.61,3.67-7.25,1.64,3.52,2.78,6.59,4.42,9.37,5.45,9.23,14.33,11.94,23.81,7.39,6.61-3.17,11.09-8.56,14.46-14.84,2.39-4.44,4.29-9.14,6.39-13.68,1.05,4.12,1.67,8.31,3.18,12.15,3.78,9.59,12.48,12.99,21.98,8.93,6.22-2.66,10.28-7.58,13.48-13.28,1.71-3.05,3.14-6.26,4.85-9.7,5.82,15.15,17.46,19.46,30.23,11.62,5.31-3.26,8.85-7.96,11.06-13.7,1.02-2.64,1.68-5.42,2.75-8.04,.32-.8,1.23-1.99,2.21-1.89,1.08,.11,1.89,1.64,1.98,2.54,1.38,14.64-7.44,32.54-22.57,36.96-10.78,3.15-20.71-.09-24.05-10.79-.11-.35-.51-2.35-1.65-1.44-2.65,2.11-4.16,4.27-5.21,6.18-3.15,5.74-3.57,11.94-2.94,18.28,1.69,16.91,14.49,26.87,31.38,25.14,15.45-1.58,25.52-9.94,30.52-24,3.88-10.91,6.31-22.32,9.44-33.71,5.31,3.69,10.81,1.43,14.84-2.69,4.07-4.15,7.73-9.27,9.85-14.64,3.83-9.68,6.37-19.86,9.48-29.83,.88-2.82,1.13-5.48-2.22-6.72Zm-152.01,38.04c-5.81,1.65-9.97-.71-11.59-6.57-2.01-7.3,1.63-15.83,8.13-19.06,8.1-4.03,14.94,.17,14.93,9.17-.01,7.61-4.87,14.58-11.46,16.45Z"/>
      <path class="cls-3" d="M330.31,256.34c-2.58,1.88-3.42,4.09-.98,6.22,1.05,.92,2.52,1.36,3.9,2.08-.4,2.18-.96,4.36-1.19,6.58-.77,7.55-2.29,15.15-1.9,22.64,.5,9.79,8.9,13.71,17.47,8.91,1.91-1.07,3.74-2.57,5.11-4.27,2.32-2.88,4.24-6.09,6.3-9.12,6.31,9.76,13.77,12.53,22.65,7.44,3.73-2.14,6.52-5.92,9.75-8.94,1.25-1.17,2.35-2.98,3.81-3.36,7.58-1.97,11.3-7.42,13.38-14.32,.36-1.19,.34-3.54-.96-4.18-1.31-.64-2.86,.95-3.98,1.82-1.97,1.54-3.71,3.39-6.09,5.63-.42-4.53-.53-7.82-1.06-11.04-2.31-14.13-13.68-18.89-25.46-10.68-6.87,4.79-10.21,11.87-12.39,19.67-.48,1.71-.91,3.51-1.82,5-2.04,3.37-7.14,5.33-10.59,4.13-3.43-1.19-4.6-3.93-4.67-7.39-.15-7.35,.92-8.83,8.56-10.35,4.03-.81,4.99-3.46,4.6-6.91-.45-3.99-3.25-2.95-5.77-2.41-.67,.14-1.4,.02-2.74,.02,.37-2.22,.62-4.07,1-5.89,.58-2.81,1.59-6.09-2.09-7.18-3.76-1.11-5.7,1.66-6.87,4.87-.46,1.26-.46,2.82-1.23,3.8-2.05,2.58-4.1,5.33-6.72,7.24Zm49.51,6.66c3.75,.16,5.08,2.6,4.95,6.07-.12,4.66-3.5,8.57-7.46,8.63-2.99,.04-5.13-2.56-5.05-6.15,.09-4.48,3.69-8.71,7.55-8.55Z"/>
    </g>
    <g>
      <path class="cls-4" d="M175.43,268.16c13.61,1.9,26.1-1.95,37.39-9.53,16.02-10.75,24.77-26.6,31.26-44.23,2.38-6.48,5.89-12.7,9.81-18.41,3.98-5.8,10.39-8.51,17.35-9,2.06-.15,5,.86,6.11,2.38,.15,.2,.22,.48,.26,.79h-9.83v13.53h.94c-3.23,3.12-6.56,6.14-9.41,9.57-5.61,6.75-11.17,13.62-15.87,21.01-3.61,5.66-4.35,12.39-2.16,19.03,1.32,3.98,4.59,4.65,7.52,1.61,.91-.95,1.54-2.19,2.2-3.35,3.94-6.91,10.32-8.7,16.95-4.44,4.23,2.72,8.69,3.9,13.63,3.22,7.61-1.05,14.38-4.03,19.98-9.34,12.78-12.13,20.31-27.6,22.87-44.42,.08-.54,.1-2.22-.27-3.08-.37-.85-1.89-2.03-3.19-2.38-1.24-.33-2.96,.28-4.11,1.37-1.24,1.18-1.83,3.04-2.77,4.56-7.28,11.78-18.05,16.98-31.67,16.55-1.44-.05-3.76-.95-4.05-1.94-.41-1.36,.38-3.42,1.29-4.75,1.24-1.82,3.04-3.27,4.65-4.83,3.63-3.55,7.45-6.94,10.91-10.66,8.05-8.67,13.36-18.68,14.06-30.74,.31-5.3-1.09-5.99-5.9-4.28-4.7,1.67-9.71,3.2-14.64,3.38-9.64,.36-19.08,.54-27.58,6.13-1.31,.86-4.71,.45-5.81-.68-2.35-2.4-4.94-4.32-7.73-2.56-2,1.26-3.33,4.79-4.01,7.35-.27,1-.31,1.72-.48,2.9-1.27,8.55-2.28,17.16-3.91,25.64-2.81,14.67-12.3,23.12-26.42,26.62-5.05,1.25-10.2,2.7-15.6,2.68-3.84-.02-7.75-.86-11.35-2.1-7.69-2.65-9.95-11.85-4.42-17.88,1.18-1.28,4.06-2.17,5.68-1.67,8.56,2.6,16.6,1.22,24.36-2.49,6.75-3.23,9.12-8.74,7.36-15.96-.88-3.63-2.76-5.42-6.81-4.22-5.29,1.57-10.61,3.13-16.02,4.15-2.08,.39-4.79-.11-6.6-1.22-5.5-3.35-7.56-9.81-5.66-16.06,2.1-6.9,9.31-11.46,18.03-11.37,6.28,.06,9.92,3.11,11.96,10.03,1.69,5.74,5.58,7.06,10.2,3.22,1.67-1.39,3.13-3.27,4.09-5.23,7.6-15.53-3.95-36.21-21.1-37.82-12.47-1.17-24.08,1.71-34.66,8.33-8.35,5.22-13.76,12.62-15.73,22.45-2.66,13.32,2.1,24.52,13.61,31.65,.8,.49,2.04,1.24,1.94,2.22-.14,1.38-2.07,2.05-3.32,2.5-15.65,5.63-23.49,16.29-23.82,32.61-.43,20.94,11.43,36.51,30.51,39.17Z"/>
      <path class="cls-4" d="M229.63,286.22c-30.09-3.98-58.14,2.6-82.05,21.95-14.23,11.52-22.06,26.7-19.36,45.7,1.46,10.25,6.33,18.39,16.89,21.64,9.05,2.79,20.24-1.16,26.43-9.13,3.31-4.26,5.41-9.03,4.34-14.55-.25-1.29-1.6-2.9-2.63-3.38-3.65-1.7-6.04-3.95-6.62-7.96-1.31-9.09,3.28-17.01,13.21-22.3,10.63-5.67,22.13-8.23,34.09-8.15,14.88,.1,22.78,8.07,22.85,22.3,.07,12.23-7.77,21.6-19.03,22.77-4.88,.51-7.16-1.38-7.09-6.16,.04-2.83,.34-5.66,.71-8.47,.61-4.59,1.56-9.13,2.02-13.73,.37-3.63-.94-6.52-5.03-7.22-7.04-1.21-12.96,2.42-14.66,9.35-1.43,5.79-2.52,11.67-3.64,17.54-2.27,11.9-4.44,23.83-11.64,34.03-3.86,5.47-8.44,10.1-15.08,12.12-7.73,2.35-15.41-.65-18.33-7.13-2.48-5.52-3.32-5.9-8.93-3.28-1.99,.93-3.96,2.18-5.55,3.68-8.38,7.91-10.09,17.94-8.65,28.81,2.1,15.88,14.01,26.02,29.97,25.34,15.15-.65,25.96-8.86,34.43-20.69,7.7-10.75,11.88-22.99,14.76-35.77,1.51-6.69,3.61-7.57,10.25-5.8,3.54,.94,7.39,1.64,10.99,1.3,25.34-2.36,43.6-21.63,43.84-47.12,.2-21.36-9.69-42.13-36.51-45.68Z"/>
      <path class="cls-4" d="M501.62,322.46c-3.24-1.2-5.52-.22-7.31,3.06-2.56,4.69-5.33,9.39-8.82,13.37-1.63,1.85-5.67,3.35-7.7,2.58-1.97-.75-3.85-4.62-3.83-7.1,.05-5.61,1.18-11.24,2.09-16.82,1.17-7.21,2.9-14.35,3.72-21.6,.43-3.79-.17-8.09-4.71-9.71-4.44-1.59-8.25,.08-11.3,3.38-1.4,1.51-2.64,3.29-3.51,5.15-1.39,2.96-2.8,6-3.53,9.16-1.98,8.57-3.46,17.26-5.41,25.83-1.77,7.74-5.99,11.66-12.78,12.53-4.52,.57-7.05-.89-7.79-5.31-.58-3.48-.62-7.13-.38-10.66,.58-8.61,2-17.2,2.04-25.81,.03-7.24-5.86-9.78-11.3-4.86-3.5,3.17-6.61,7.58-8.08,12.03-2.88,8.74-4.23,17.97-6.75,26.85-1.18,4.16-3.03,8.4-5.61,11.82-2.86,3.8-7.63,5.22-12.15,3.33-4.55-1.9-4.38-6.62-3.74-10.56,1.06-6.61,2.83-13.1,4.25-19.65,.76-3.49,1.89-6.99,2.01-10.51,.25-7.58-4.92-10.65-11.54-6.92-2.28,1.29-4.18,3.35-6.04,5.26-2.8,2.87-5.53,3.14-9.25,1.41-3.26-1.51-7.07-2.62-10.62-2.59-9.88,.08-18.19,4.3-24.96,11.42-9.23,9.7-13.26,21.79-15.46,34.65-1.22,7.13-6.64,12.8-13.39,13.88-4.77,.76-8.18-1.05-9.04-5.76-.74-4.04-.86-8.32-.48-12.43,1.7-18.52,6.49-36.4,11.66-54.2,1.11-3.83,2-7.87,2.09-11.83,.13-5.62-4.17-8.9-9.29-6.7-3.45,1.48-7.11,4.32-8.86,7.54-3.03,5.56-5.46,11.72-6.71,17.91-4.26,21.06-8.06,42.22-11.7,63.4-1.85,10.78-2.44,21.72-.05,32.54,2.33,10.55,9.77,15.16,20.3,13.03,11.2-2.27,17.48-10.22,22.63-19.48,1.26-2.26,2.34-4.61,3.67-7.25,1.64,3.52,2.78,6.59,4.42,9.37,5.45,9.23,14.33,11.94,23.81,7.39,6.61-3.17,11.09-8.56,14.46-14.84,2.39-4.44,4.29-9.14,6.39-13.68,1.05,4.12,1.67,8.31,3.18,12.15,3.78,9.59,12.48,12.99,21.98,8.93,6.22-2.66,10.28-7.58,13.48-13.28,1.71-3.05,3.14-6.26,4.85-9.7,5.82,15.15,17.46,19.46,30.23,11.62,5.31-3.26,8.85-7.96,11.06-13.7,1.02-2.64,1.68-5.42,2.75-8.04,.32-.8,1.23-1.99,2.21-1.89,1.08,.11,1.89,1.64,1.98,2.54,1.38,14.64-7.44,32.54-22.57,36.96-10.78,3.15-20.71-.09-24.05-10.79-.11-.35-.51-2.35-1.65-1.44-2.65,2.11-4.16,4.27-5.21,6.18-3.15,5.74-3.57,11.94-2.94,18.28,1.69,16.91,14.49,26.87,31.38,25.14,15.45-1.58,25.52-9.94,30.52-24,3.88-10.91,6.31-22.32,9.44-33.71,5.31,3.69,10.81,1.43,14.84-2.69,4.07-4.15,7.73-9.27,9.85-14.64,3.83-9.68,6.37-19.86,9.48-29.83,.88-2.82,1.13-5.48-2.22-6.72Zm-152.01,38.04c-5.81,1.65-9.97-.71-11.59-6.57-2.01-7.3,1.63-15.83,8.12-19.06,8.1-4.03,14.94,.17,14.93,9.17-.01,7.61-4.87,14.58-11.46,16.45Z"/>
      <path class="cls-4" d="M322.44,248.47c-2.58,1.88-3.42,4.09-.98,6.22,1.05,.92,2.52,1.36,3.9,2.08-.4,2.18-.96,4.36-1.19,6.58-.77,7.55-2.29,15.15-1.9,22.64,.51,9.79,8.9,13.71,17.47,8.91,1.91-1.07,3.74-2.57,5.11-4.27,2.32-2.88,4.24-6.09,6.3-9.12,6.31,9.76,13.77,12.53,22.65,7.44,3.73-2.14,6.52-5.92,9.75-8.94,1.25-1.17,2.35-2.98,3.81-3.36,7.58-1.97,11.3-7.42,13.38-14.32,.36-1.19,.34-3.54-.96-4.18-1.31-.64-2.86,.95-3.98,1.82-1.97,1.54-3.71,3.39-6.09,5.63-.42-4.53-.53-7.82-1.06-11.04-2.31-14.13-13.68-18.89-25.46-10.68-6.87,4.79-10.21,11.87-12.39,19.67-.48,1.71-.91,3.51-1.82,5-2.04,3.37-7.14,5.33-10.59,4.13-3.43-1.19-4.6-3.93-4.67-7.39-.15-7.35,.92-8.83,8.56-10.35,4.03-.81,4.99-3.46,4.6-6.91-.45-3.99-3.25-2.95-5.77-2.41-.67,.14-1.4,.02-2.74,.02,.37-2.22,.62-4.07,1-5.89,.58-2.81,1.59-6.09-2.09-7.18-3.76-1.11-5.7,1.66-6.87,4.87-.46,1.26-.46,2.82-1.23,3.8-2.05,2.58-4.1,5.33-6.72,7.24Zm49.51,6.66c3.75,.16,5.08,2.6,4.95,6.07-.12,4.66-3.5,8.57-7.46,8.63-2.99,.04-5.13-2.56-5.05-6.15,.09-4.48,3.69-8.71,7.55-8.55Z"/>
    </g>
    <g>
      <path class="cls-1" d="M189.31,217.99c-3.84-.02-7.75-.86-11.35-2.1-7.69-2.65-9.95-11.85-4.42-17.88,1.18-1.28,4.06-2.17,5.68-1.67,8.56,2.6,16.6,1.22,24.36-2.49,6.75-3.23,9.12-8.74,7.36-15.96-.88-3.63-2.76-5.42-6.81-4.22-5.29,1.57-10.61,3.13-16.02,4.15-2.08,.39-4.79-.11-6.6-1.22-5.5-3.35-7.56-9.81-5.66-16.06,2.1-6.9,9.31-11.46,18.03-11.37,6.28,.06,9.92,3.11,11.96,10.03,1.69,5.74,5.58,7.06,10.2,3.22,1.67-1.39,3.13-3.27,4.09-5.23,7.6-15.53-3.95-36.21-21.1-37.82-12.47-1.17-24.08,1.71-34.66,8.33-8.35,5.22-13.76,12.62-15.73,22.45-2.66,13.32,2.1,24.52,13.61,31.65,.8,.49,2.04,1.24,1.94,2.22-.14,1.38-2.07,2.05-3.32,2.5-15.65,5.63-23.49,16.29-23.82,32.61-.43,20.94,11.43,36.51,30.51,39.17,13.61,1.9,26.1-1.95,37.39-9.53,16.02-10.75,24.77-26.6,31.26-44.23,2.38-6.48,5.89-12.7,9.81-18.41,3.98-5.8,10.39-8.51,17.35-9,2.06-.15,5,.86,6.11,2.38,.83,1.14-.21,4.18-1.18,5.95-1.2,2.18-3.1,4-4.87,5.82-3.96,4.07-8.37,7.77-11.98,12.12-5.61,6.75-11.17,13.62-15.87,21.01-3.61,5.66-4.35,12.39-2.16,19.03,1.32,3.98,4.59,4.65,7.52,1.61,.91-.95,1.54-2.19,2.2-3.35,3.94-6.91,10.32-8.7,16.95-4.44,4.23,2.72,8.69,3.9,13.63,3.22,7.61-1.05,14.38-4.03,19.98-9.34,12.78-12.13,20.31-27.6,22.87-44.42,.08-.54,.1-2.22-.27-3.08-.37-.85-1.89-2.03-3.19-2.38-1.24-.33-2.96,.28-4.11,1.37-1.24,1.18-1.83,3.04-2.77,4.56-7.28,11.78-18.05,16.98-31.67,16.55-1.44-.05-3.76-.95-4.05-1.94-.41-1.36,.38-3.42,1.29-4.75,1.24-1.82,3.04-3.27,4.65-4.83,3.63-3.55,7.45-6.94,10.91-10.66,8.05-8.67,13.36-18.68,14.06-30.74,.31-5.3-1.09-5.99-5.9-4.28-4.7,1.67-9.71,3.2-14.64,3.38-9.64,.36-19.08,.54-27.58,6.13-1.31,.86-4.71,.45-5.81-.68-2.35-2.4-4.94-4.32-7.73-2.56-2,1.26-3.33,4.79-4.01,7.35-.27,1-.31,1.72-.48,2.9-1.27,8.55-2.28,17.16-3.91,25.64-2.81,14.67-12.3,23.12-26.42,26.62-5.05,1.25-10.2,2.7-15.6,2.68Z"/>
      <path class="cls-1" d="M228.92,322.46c.07,12.23-7.77,21.6-19.03,22.77-4.88,.51-7.16-1.38-7.09-6.16,.04-2.83,.34-5.66,.71-8.47,.61-4.59,1.56-9.13,2.02-13.73,.37-3.63-.94-6.52-5.03-7.22-7.04-1.21-12.96,2.42-14.66,9.35-1.43,5.79-2.52,11.67-3.64,17.54-2.27,11.9-4.44,23.83-11.64,34.03-3.86,5.47-8.44,10.1-15.08,12.12-7.73,2.35-15.41-.65-18.33-7.13-2.48-5.52-3.32-5.9-8.93-3.28-1.99,.93-3.96,2.18-5.55,3.68-8.38,7.91-10.09,17.94-8.65,28.81,2.1,15.88,14.01,26.02,29.97,25.34,15.15-.65,25.96-8.86,34.43-20.69,7.7-10.75,11.88-22.99,14.76-35.77,1.51-6.69,3.61-7.57,10.25-5.8,3.54,.94,7.39,1.64,10.99,1.3,25.34-2.36,43.6-21.63,43.84-47.12,.2-21.36-9.69-42.13-36.51-45.68-30.09-3.98-58.14,2.6-82.05,21.95-14.23,11.52-22.06,26.7-19.36,45.7,1.46,10.25,6.33,18.39,16.89,21.64,9.05,2.79,20.24-1.16,26.43-9.13,3.31-4.26,5.41-9.03,4.34-14.55-.25-1.29-1.6-2.9-2.63-3.38-3.65-1.7-6.04-3.95-6.62-7.96-1.31-9.09,3.28-17.01,13.21-22.3,10.63-5.67,22.13-8.23,34.09-8.15,14.88,.1,22.78,8.07,22.85,22.3Z"/>
      <path class="cls-1" d="M493.75,312.59c-3.24-1.2-5.52-.22-7.31,3.06-2.56,4.69-5.33,9.39-8.82,13.37-1.63,1.85-5.67,3.35-7.7,2.58-1.97-.75-3.85-4.62-3.83-7.1,.05-5.61,1.18-11.24,2.09-16.82,1.17-7.21,2.9-14.35,3.72-21.6,.43-3.79-.17-8.09-4.71-9.71-4.44-1.59-8.25,.08-11.3,3.38-1.4,1.51-2.64,3.29-3.51,5.15-1.39,2.96-2.8,6-3.53,9.16-1.98,8.57-3.46,17.26-5.41,25.83-1.77,7.74-5.99,11.66-12.78,12.53-4.52,.57-7.05-.89-7.79-5.31-.58-3.48-.62-7.13-.38-10.66,.58-8.61,2-17.2,2.04-25.81,.03-7.24-5.86-9.78-11.3-4.86-3.5,3.17-6.61,7.58-8.08,12.03-2.88,8.74-4.23,17.97-6.75,26.85-1.18,4.16-3.03,8.4-5.61,11.82-2.86,3.8-7.63,5.22-12.15,3.33-4.55-1.9-4.38-6.62-3.74-10.56,1.06-6.61,2.83-13.1,4.25-19.65,.76-3.49,1.89-6.99,2.01-10.51,.25-7.58-4.92-10.65-11.54-6.92-2.28,1.29-4.18,3.35-6.04,5.26-2.8,2.87-5.53,3.14-9.25,1.41-3.26-1.51-7.07-2.62-10.62-2.59-9.88,.08-18.19,4.3-24.96,11.42-9.23,9.7-13.26,21.79-15.46,34.65-1.22,7.13-6.64,12.8-13.39,13.88-4.77,.76-8.18-1.05-9.04-5.76-.74-4.04-.86-8.32-.48-12.43,1.7-18.52,6.49-36.4,11.66-54.2,1.11-3.83,2-7.87,2.09-11.83,.13-5.62-4.17-8.9-9.29-6.7-3.45,1.48-7.11,4.32-8.86,7.54-3.03,5.56-5.46,11.72-6.71,17.91-4.26,21.06-8.06,42.22-11.7,63.4-1.85,10.78-2.44,21.72-.05,32.54,2.33,10.55,9.77,15.16,20.3,13.03,11.2-2.27,17.48-10.22,22.63-19.48,1.26-2.26,2.34-4.61,3.67-7.25,1.64,3.52,2.78,6.59,4.42,9.37,5.45,9.23,14.33,11.94,23.81,7.39,6.61-3.17,11.09-8.56,14.46-14.84,2.39-4.44,4.29-9.14,6.39-13.68,1.05,4.12,1.67,8.31,3.18,12.15,3.78,9.59,12.48,12.99,21.98,8.93,6.22-2.66,10.28-7.58,13.48-13.28,1.71-3.05,3.14-6.26,4.85-9.7,5.82,15.15,17.46,19.46,30.23,11.62,5.31-3.26,8.85-7.96,11.06-13.7,1.02-2.64,1.68-5.42,2.75-8.04,.32-.8,1.23-1.99,2.21-1.89,1.08,.11,1.89,1.64,1.98,2.54,1.38,14.64-7.44,32.54-22.57,36.96-10.78,3.15-20.71-.09-24.05-10.79-.11-.35-.51-2.35-1.65-1.44-2.65,2.11-4.16,4.27-5.21,6.18-3.15,5.74-3.57,11.94-2.94,18.28,1.69,16.91,14.49,26.87,31.38,25.14,15.45-1.58,25.52-9.94,30.52-24,3.88-10.91,6.31-22.32,9.44-33.71,5.31,3.69,10.81,1.43,14.84-2.69,4.07-4.15,7.73-9.27,9.85-14.64,3.83-9.68,6.37-19.86,9.48-29.83,.88-2.82,1.13-5.48-2.22-6.72Zm-152.01,38.04c-5.81,1.65-9.97-.71-11.59-6.57-2.01-7.3,1.63-15.83,8.13-19.06,8.1-4.03,14.94,.17,14.93,9.17-.01,7.61-4.87,14.58-11.46,16.45Z"/>
      <path class="cls-1" d="M391.9,248.28c-1.31-.64-2.86,.95-3.98,1.82-1.97,1.54-3.71,3.39-6.09,5.63-.42-4.53-.53-7.82-1.06-11.04-2.31-14.13-13.68-18.89-25.46-10.68-6.87,4.79-10.21,11.87-12.39,19.67-.48,1.71-.91,3.51-1.82,5-2.04,3.37-7.14,5.33-10.59,4.13-3.43-1.19-4.6-3.93-4.67-7.39-.15-7.35,.92-8.83,8.56-10.35,4.03-.81,4.99-3.46,4.6-6.91-.45-3.99-3.25-2.95-5.77-2.41-.67,.14-1.4,.02-2.74,.02,.37-2.22,.62-4.07,1-5.89,.58-2.81,1.59-6.09-2.09-7.18-3.76-1.11-5.7,1.66-6.87,4.87-.46,1.26-.46,2.82-1.23,3.8-2.05,2.58-4.1,5.33-6.72,7.24-2.58,1.88-3.42,4.09-.98,6.22,1.05,.92,2.52,1.36,3.9,2.08-.4,2.18-.96,4.36-1.19,6.58-.77,7.55-2.29,15.15-1.9,22.64,.5,9.79,8.9,13.71,17.47,8.91,1.91-1.07,3.74-2.57,5.11-4.27,2.32-2.88,4.24-6.09,6.3-9.12,6.31,9.76,13.77,12.53,22.65,7.44,3.73-2.14,6.52-5.92,9.75-8.94,1.25-1.17,2.35-2.98,3.81-3.36,7.58-1.97,11.3-7.42,13.38-14.32,.36-1.19,.34-3.54-.96-4.18Zm-22.86,3.05c-.12,4.66-3.5,8.57-7.46,8.63-2.99,.04-5.13-2.56-5.05-6.15,.09-4.48,3.69-8.71,7.55-8.55,3.75,.16,5.08,2.6,4.95,6.07Z"/>
    </g>
  </g>
</svg>