<?xml version="1.0" encoding="UTF-8"?>
<svg id="_레이어_1" data-name="레이어 1" width="200" height="current" xmlns="http://www.w3.org/2000/svg" viewBox="0 0 705.4 595.27">
  <defs>
    <style>
      .cls-1 {
        fill: #ffe000;
      }

      .cls-2 {
        fill: #fff;
      }

      .cls-3 {
        fill: #ff3ea3;
      }

      .cls-4 {
        fill: #3d2e28;
      }

      .cls-5 {
        fill: #50479a;
      }

      .cls-6 {
        fill: #503328;
      }
    </style>
  </defs>
  <circle class="cls-5" cx="423.57" cy="292.57" r="241.99"/>
  <circle class="cls-1" cx="319.8" cy="288.59" r="214.64"/>
  <circle class="cls-3" cx="215.95" cy="286.83" r="187.05"/>
  <g>
    <path class="cls-4" d="M245.81,294.93c-.33-.75-1.66-1.78-2.8-2.08-1.09-.29-2.59,.24-3.6,1.2-1.09,1.04-1.61,2.66-2.43,4-6.38,10.32-15.81,14.88-27.74,14.5-1.26-.04-3.29-.84-3.55-1.7-.36-1.19,.34-2.99,1.13-4.16,1.09-1.6,2.67-2.86,4.07-4.23,3.18-3.11,6.53-6.08,9.56-9.34,7.06-7.6,11.7-16.36,12.32-26.94,.27-4.64-.96-5.25-5.17-3.75-4.12,1.46-8.51,2.8-12.82,2.96-8.45,.31-16.72,.47-24.16,5.37-1.15,.75-4.13,.39-5.09-.6-2.06-2.1-4.32-3.78-6.78-2.24-1.75,1.1-2.92,4.2-3.51,6.44-.23,.88-.27,1.5-.42,2.54-1.07,7.19-1.94,14.42-3.27,21.57h-5.04v12.73c-4.12,5.79-10.36,9.53-18.26,11.49-4.42,1.1-8.94,2.37-13.67,2.35-3.36-.01-6.79-.75-9.94-1.84-6.73-2.32-8.72-10.38-3.88-15.66,1.03-1.12,3.56-1.9,4.98-1.47,7.5,2.28,14.55,1.07,21.34-2.19,5.92-2.83,7.99-7.66,6.45-13.99-.77-3.18-2.42-4.75-5.96-3.7-4.63,1.38-9.3,2.74-14.04,3.63-1.82,.34-4.2-.1-5.78-1.07-4.82-2.93-6.62-8.6-4.96-14.07,1.84-6.05,8.16-10.04,15.8-9.97,5.51,.05,8.69,2.72,10.48,8.78,1.48,5.03,4.89,6.19,8.94,2.82,1.46-1.21,2.74-2.87,3.58-4.58,6.66-13.6-3.46-31.73-18.49-33.13-10.93-1.02-21.1,1.5-30.37,7.3-7.31,4.57-12.06,11.05-13.78,19.67-2.33,11.67,1.84,21.48,11.92,27.73,.7,.43,1.79,1.08,1.7,1.94-.13,1.21-1.82,1.8-2.91,2.19-13.71,4.93-20.58,14.27-20.87,28.57-.38,18.35,10.02,31.99,26.73,34.32,11.92,1.66,22.87-1.71,32.76-8.35,14.03-9.42,21.7-23.31,27.39-38.76,2.09-5.67,5.16-11.13,8.59-16.13,3.48-5.08,9.1-7.46,15.2-7.89,1.8-.13,4.38,.75,5.35,2.09,.21,.29,.27,.74,.25,1.24h-4.29v7.77c-.42,.44-.85,.87-1.26,1.3-3.47,3.57-7.33,6.8-10.5,10.62-4.91,5.91-9.79,11.94-13.91,18.4-3.16,4.96-3.81,10.86-1.89,16.67,1.15,3.49,4.02,4.07,6.59,1.41,.8-.83,1.35-1.92,1.93-2.93,3.45-6.05,9.05-7.62,14.85-3.89,3.71,2.38,7.62,3.42,11.94,2.82,6.67-.92,12.6-3.53,17.51-8.18,11.2-10.63,17.79-24.18,20.04-38.92,.07-.48,.09-1.95-.24-2.7Z"/>
    <path class="cls-6" d="M238.92,288.04c-.33-.75-1.66-1.78-2.8-2.08-1.09-.29-2.59,.24-3.6,1.2-1.09,1.04-1.61,2.66-2.43,4-6.38,10.32-15.81,14.88-27.74,14.5-1.26-.04-3.29-.84-3.55-1.7-.36-1.19,.34-2.99,1.13-4.16,1.09-1.6,2.67-2.86,4.07-4.23,3.18-3.11,6.53-6.08,9.56-9.34,7.06-7.6,11.7-16.36,12.32-26.94,.27-4.64-.96-5.25-5.17-3.75-4.12,1.46-8.51,2.8-12.82,2.96-8.45,.32-16.72,.47-24.16,5.37-1.15,.75-4.13,.39-5.09-.6-2.06-2.1-4.32-3.78-6.78-2.24-1.75,1.1-2.92,4.2-3.51,6.44-.23,.88-.27,1.5-.42,2.54-.98,6.64-1.82,13.32-2.98,19.93h-5.88v13.48h1.16c-4.11,6.3-10.57,10.33-18.87,12.39-4.42,1.1-8.94,2.37-13.67,2.35-3.36-.01-6.79-.75-9.94-1.84-6.73-2.32-8.72-10.38-3.88-15.66,1.03-1.12,3.56-1.9,4.98-1.47,7.5,2.28,14.55,1.07,21.34-2.19,5.92-2.83,7.99-7.66,6.45-13.99-.77-3.18-2.42-4.75-5.96-3.7-4.63,1.38-9.3,2.74-14.04,3.63-1.82,.34-4.2-.1-5.78-1.07-4.82-2.93-6.62-8.6-4.96-14.07,1.84-6.05,8.16-10.04,15.8-9.97,5.51,.05,8.69,2.72,10.48,8.78,1.48,5.03,4.89,6.19,8.94,2.82,1.46-1.21,2.74-2.87,3.58-4.58,6.66-13.6-3.46-31.73-18.49-33.13-10.93-1.02-21.1,1.5-30.37,7.3-7.31,4.57-12.06,11.05-13.78,19.67-2.33,11.67,1.84,21.48,11.92,27.73,.7,.43,1.79,1.08,1.7,1.94-.13,1.21-1.82,1.8-2.91,2.19-13.71,4.93-20.58,14.27-20.87,28.57-.38,18.35,10.02,31.99,26.73,34.32,11.92,1.66,22.87-1.71,32.76-8.35,14.03-9.42,21.7-23.31,27.39-38.76,2.09-5.67,5.16-11.13,8.59-16.13,3.48-5.08,9.1-7.46,15.2-7.89,1.8-.13,4.38,.75,5.35,2.09,.44,.6,.28,1.81-.1,3.01h-7.31v7.89h1.52c-3.32,3.34-6.92,6.43-9.91,10.03-4.91,5.91-9.79,11.94-13.91,18.4-3.16,4.96-3.81,10.86-1.89,16.67,1.15,3.49,4.02,4.07,6.59,1.41,.8-.83,1.35-1.92,1.93-2.93,3.45-6.05,9.05-7.62,14.85-3.89,3.71,2.38,7.62,3.42,11.94,2.82,6.67-.92,12.6-3.53,17.51-8.18,11.2-10.63,17.79-24.18,20.04-38.92,.07-.48,.09-1.95-.24-2.7Z"/>
    <path class="cls-2" d="M120.77,311.26c-3.36-.01-6.79-.75-9.94-1.84-6.73-2.32-8.72-10.38-3.88-15.66,1.03-1.12,3.56-1.9,4.98-1.47,7.5,2.28,14.55,1.07,21.34-2.19,5.92-2.83,7.99-7.66,6.45-13.99-.77-3.18-2.42-4.75-5.96-3.7-4.63,1.38-9.3,2.74-14.04,3.63-1.82,.34-4.2-.1-5.78-1.07-4.82-2.93-6.62-8.6-4.96-14.07,1.84-6.05,8.16-10.04,15.8-9.97,5.51,.05,8.69,2.72,10.48,8.78,1.48,5.03,4.89,6.19,8.94,2.82,1.46-1.21,2.74-2.87,3.58-4.58,6.66-13.6-3.46-31.73-18.49-33.13-10.93-1.02-21.1,1.5-30.37,7.3-7.31,4.57-12.06,11.05-13.78,19.67-2.33,11.67,1.84,21.48,11.92,27.73,.7,.43,1.79,1.08,1.7,1.94-.13,1.21-1.82,1.8-2.91,2.19-13.71,4.93-20.58,14.27-20.87,28.57-.38,18.35,10.02,31.99,26.73,34.32,11.92,1.66,22.87-1.71,32.76-8.35,14.03-9.42,21.7-23.31,27.39-38.76,2.09-5.67,5.16-11.13,8.59-16.13,3.48-5.08,9.1-7.46,15.2-7.89,1.8-.13,4.38,.75,5.35,2.09,.73,1-.18,3.66-1.04,5.21-1.05,1.91-2.72,3.51-4.27,5.1-3.47,3.57-7.33,6.8-10.5,10.62-4.91,5.91-9.79,11.94-13.91,18.4-3.16,4.96-3.81,10.86-1.89,16.67,1.15,3.49,4.02,4.07,6.59,1.41,.8-.83,1.35-1.92,1.93-2.93,3.45-6.05,9.05-7.62,14.85-3.89,3.71,2.38,7.62,3.42,11.94,2.82,6.67-.92,12.6-3.53,17.51-8.18,11.2-10.63,17.79-24.18,20.04-38.92,.07-.48,.09-1.95-.24-2.7-.33-.75-1.66-1.78-2.8-2.08-1.09-.29-2.59,.24-3.6,1.2-1.09,1.04-1.61,2.66-2.43,4-6.38,10.32-15.81,14.88-27.74,14.5-1.26-.04-3.29-.84-3.55-1.7-.36-1.19,.34-2.99,1.13-4.16,1.09-1.6,2.67-2.86,4.07-4.23,3.18-3.11,6.53-6.08,9.56-9.34,7.06-7.6,11.7-16.36,12.32-26.94,.27-4.64-.96-5.25-5.17-3.75-4.12,1.46-8.51,2.8-12.82,2.96-8.45,.32-16.72,.47-24.16,5.37-1.15,.75-4.13,.39-5.09-.6-2.06-2.1-4.32-3.78-6.78-2.24-1.75,1.1-2.92,4.2-3.51,6.44-.23,.88-.27,1.5-.42,2.54-1.11,7.49-2,15.03-3.42,22.46-2.46,12.86-10.78,20.26-23.14,23.32-4.42,1.1-8.94,2.37-13.67,2.35Z"/>
    <path class="cls-4" d="M315.5,305.72c-1.15-.56-2.5,.83-3.48,1.59-1.73,1.35-3.25,2.97-5.34,4.94-.37-3.97-.46-6.85-.92-9.67-2.03-12.38-11.99-16.55-22.31-9.36-6.02,4.2-8.95,10.4-10.86,17.23-.42,1.5-.8,3.07-1.59,4.38-1.79,2.96-6.25,4.67-9.28,3.62-3-1.04-4.03-3.44-4.1-6.47-.13-6.44,.81-7.73,7.5-9.07,3.53-.71,4.37-3.03,4.03-6.05-.4-3.5-2.85-2.58-5.05-2.11-.59,.13-1.22,.02-2.4,.02,.32-1.94,.54-3.57,.87-5.16,.51-2.46,1.4-5.33-1.83-6.29-3.29-.98-5,1.46-6.02,4.26-.4,1.1-.4,2.47-1.08,3.33-1.79,2.26-3.59,4.67-5.88,6.34-2.26,1.65-3,3.58-.86,5.45,.92,.81,2.21,1.2,3.42,1.82-.35,1.91-.84,3.82-1.04,5.76-.67,6.61-2.01,13.27-1.67,19.84,.44,8.58,7.8,12.01,15.3,7.81,1.67-.94,3.28-2.25,4.47-3.74,2.03-2.53,3.71-5.33,5.52-7.99,5.53,8.55,12.06,10.98,19.84,6.52,3.27-1.87,5.72-5.19,8.54-7.84,1.09-1.02,2.06-2.61,3.34-2.94,6.64-1.73,9.9-6.5,11.72-12.55,.31-1.04,.3-3.11-.84-3.66Zm-20.03,2.67c-.11,4.09-3.07,7.51-6.53,7.56-2.62,.03-4.49-2.24-4.42-5.39,.08-3.93,3.24-7.63,6.62-7.49,3.29,.14,4.45,2.28,4.34,5.32Z"/>
    <path class="cls-6" d="M308.6,298.82c-1.15-.56-2.5,.83-3.48,1.59-1.73,1.35-3.25,2.97-5.34,4.94-.37-3.97-.46-6.85-.92-9.67-2.03-12.38-11.99-16.55-22.31-9.36-6.02,4.2-8.95,10.4-10.86,17.23-.42,1.5-.8,3.07-1.59,4.38-1.79,2.96-6.25,4.67-9.28,3.62-3-1.04-4.03-3.44-4.1-6.47-.13-6.44,.81-7.73,7.5-9.07,3.53-.71,4.37-3.03,4.03-6.05-.4-3.5-2.85-2.58-5.05-2.11-.59,.13-1.22,.02-2.4,.02,.32-1.94,.54-3.57,.87-5.16,.51-2.46,1.4-5.33-1.83-6.29-3.29-.98-5,1.46-6.02,4.26-.4,1.1-.4,2.47-1.08,3.33-1.79,2.26-3.59,4.67-5.88,6.34-2.26,1.65-3,3.58-.86,5.45,.92,.81,2.21,1.2,3.42,1.82-.35,1.91-.84,3.82-1.04,5.76-.67,6.61-2.01,13.27-1.67,19.84,.44,8.58,7.8,12.01,15.3,7.81,1.67-.94,3.28-2.25,4.47-3.74,2.03-2.53,3.71-5.33,5.52-7.99,5.53,8.55,12.06,10.98,19.84,6.52,3.27-1.87,5.72-5.19,8.54-7.84,1.09-1.02,2.06-2.61,3.34-2.94,6.64-1.73,9.9-6.5,11.72-12.55,.31-1.04,.3-3.11-.84-3.66Zm-20.03,2.67c-.11,4.09-3.07,7.51-6.53,7.56-2.62,.03-4.49-2.24-4.42-5.39,.08-3.93,3.24-7.63,6.62-7.49,3.29,.14,4.45,2.28,4.34,5.32Z"/>
    <path class="cls-2" d="M301.71,291.93c-1.15-.56-2.5,.83-3.48,1.59-1.73,1.35-3.25,2.97-5.34,4.94-.37-3.97-.46-6.85-.92-9.67-2.03-12.38-11.99-16.55-22.31-9.36-6.02,4.2-8.95,10.4-10.86,17.23-.42,1.5-.8,3.07-1.59,4.38-1.79,2.96-6.25,4.67-9.28,3.62-3-1.04-4.03-3.44-4.1-6.47-.13-6.44,.81-7.73,7.5-9.07,3.53-.71,4.37-3.03,4.03-6.05-.4-3.5-2.85-2.58-5.05-2.11-.59,.13-1.22,.02-2.4,.02,.32-1.94,.54-3.57,.87-5.16,.51-2.46,1.4-5.33-1.83-6.29-3.29-.98-5,1.46-6.02,4.26-.4,1.1-.4,2.47-1.08,3.33-1.79,2.26-3.59,4.67-5.88,6.34-2.26,1.65-3,3.58-.86,5.45,.92,.81,2.21,1.2,3.42,1.82-.35,1.91-.84,3.82-1.04,5.76-.67,6.61-2.01,13.27-1.67,19.84,.44,8.58,7.8,12.01,15.3,7.81,1.67-.94,3.28-2.25,4.47-3.74,2.03-2.53,3.71-5.33,5.52-7.99,5.53,8.55,12.06,10.98,19.84,6.52,3.27-1.87,5.72-5.19,8.54-7.84,1.09-1.02,2.06-2.61,3.34-2.94,6.64-1.73,9.9-6.5,11.72-12.55,.31-1.04,.3-3.11-.84-3.66Zm-20.03,2.67c-.11,4.09-3.07,7.51-6.53,7.56-2.62,.03-4.49-2.24-4.42-5.39,.08-3.93,3.24-7.63,6.62-7.49,3.29,.14,4.45,2.28,4.34,5.32Z"/>
    <path class="cls-4" d="M403.84,287.45c.06,10.71-6.81,18.93-16.68,19.95-4.28,.44-6.27-1.21-6.22-5.4,.03-2.48,.3-4.96,.63-7.42,.54-4.02,1.37-8,1.77-12.03,.32-3.18-.82-5.71-4.4-6.33-6.16-1.06-11.35,2.12-12.85,8.19-1.25,5.07-2.2,10.23-3.18,15.36-1.99,10.43-3.89,20.88-10.2,29.82-3.39,4.79-7.39,8.85-13.21,10.62-6.78,2.06-13.5-.57-16.06-6.25-2.17-4.83-2.91-5.17-7.82-2.88-1.75,.82-3.47,1.91-4.86,3.22-7.34,6.93-8.84,15.72-7.58,25.24,1.84,13.91,12.27,22.8,26.26,22.2,13.27-.57,22.74-7.77,30.16-18.12,6.75-9.42,10.41-20.14,12.93-31.34,1.32-5.86,3.16-6.63,8.98-5.08,3.1,.83,6.47,1.44,9.63,1.14,22.2-2.07,38.2-18.95,38.41-41.29,.18-18.71-8.49-36.91-31.99-40.02-26.36-3.49-50.93,2.28-71.88,19.23-12.47,10.09-19.33,23.4-16.96,40.04,1.28,8.98,5.55,16.11,14.8,18.96,7.93,2.45,17.73-1.01,23.16-8,2.9-3.73,4.74-7.92,3.8-12.75-.22-1.13-1.41-2.54-2.31-2.96-3.2-1.49-5.3-3.46-5.8-6.98-1.14-7.96,2.87-14.9,11.58-19.54,9.31-4.97,19.39-7.21,29.86-7.14,13.03,.09,19.96,7.07,20.02,19.54Z"/>
    <path class="cls-4" d="M635.87,278.81c-2.84-1.05-4.83-.19-6.41,2.68-2.24,4.11-4.67,8.23-7.73,11.72-1.42,1.62-4.97,2.94-6.74,2.26-1.72-.66-3.38-4.04-3.36-6.22,.04-4.92,1.03-9.84,1.83-14.74,1.03-6.32,2.54-12.57,3.26-18.92,.37-3.32-.15-7.09-4.13-8.5-3.89-1.39-7.23,.07-9.9,2.96-1.23,1.33-2.31,2.88-3.08,4.51-1.22,2.59-2.46,5.25-3.1,8.02-1.73,7.51-3.03,15.12-4.74,22.63-1.55,6.78-5.25,10.22-11.2,10.97-3.96,.5-6.18-.78-6.82-4.65-.51-3.05-.54-6.24-.34-9.34,.5-7.55,1.75-15.07,1.79-22.61,.03-6.34-5.13-8.57-9.9-4.26-3.07,2.78-5.79,6.64-7.08,10.54-2.52,7.66-3.71,15.74-5.91,23.52-1.03,3.65-2.65,7.36-4.91,10.36-2.51,3.33-6.68,4.57-10.64,2.92-3.99-1.66-3.83-5.8-3.28-9.25,.93-5.79,2.48-11.48,3.72-17.22,.66-3.06,1.66-6.12,1.76-9.21,.22-6.64-4.31-9.33-10.11-6.06-2,1.13-3.66,2.93-5.29,4.61-2.45,2.52-4.85,2.75-8.1,1.24-2.86-1.33-6.19-2.29-9.31-2.27-8.66,.07-15.94,3.77-21.87,10-8.09,8.5-11.61,19.09-13.54,30.35-1.07,6.25-5.81,11.21-11.73,12.16-4.18,.67-7.17-.92-7.92-5.05-.65-3.54-.75-7.29-.42-10.89,1.49-16.23,5.69-31.89,10.21-47.48,.97-3.36,1.75-6.89,1.83-10.37,.11-4.92-3.66-7.79-8.14-5.87-3.03,1.3-6.23,3.79-7.76,6.61-2.65,4.87-4.78,10.27-5.88,15.69-3.73,18.45-7.06,36.99-10.25,55.55-1.62,9.45-2.14,19.03-.05,28.51,2.04,9.25,8.56,13.29,17.79,11.41,9.81-1.99,15.31-8.96,19.83-17.07,1.1-1.98,2.05-4.04,3.22-6.35,1.44,3.08,2.44,5.78,3.88,8.21,4.77,8.08,12.55,10.46,20.86,6.48,5.79-2.78,9.71-7.5,12.67-13,2.09-3.89,3.76-8.01,5.6-11.99,.92,3.61,1.46,7.28,2.79,10.65,3.31,8.4,10.94,11.38,19.26,7.82,5.45-2.33,9.01-6.64,11.81-11.64,1.5-2.67,2.75-5.49,4.25-8.5,5.1,13.27,15.29,17.05,26.48,10.18,4.65-2.85,7.75-6.98,9.69-12,.89-2.31,1.47-4.75,2.41-7.04,.28-.7,1.08-1.74,1.93-1.66,.95,.1,1.66,1.43,1.73,2.22,1.21,12.83-6.52,28.51-19.78,32.38-9.45,2.76-18.14-.08-21.07-9.46-.1-.31-.44-2.06-1.44-1.26-2.32,1.85-3.64,3.74-4.56,5.42-2.76,5.03-3.13,10.46-2.58,16.02,1.48,14.82,12.7,23.54,27.49,22.03,13.54-1.38,22.36-8.7,26.74-21.03,3.4-9.55,5.53-19.56,8.27-29.53,4.65,3.23,9.47,1.25,13-2.35,3.57-3.64,6.77-8.12,8.63-12.83,3.36-8.48,5.58-17.4,8.31-26.13,.77-2.47,.99-4.8-1.95-5.89Zm-133.18,33.33c-5.09,1.44-8.74-.62-10.15-5.75-1.76-6.39,1.43-13.87,7.12-16.7,7.1-3.53,13.09,.15,13.08,8.04-.01,6.67-4.27,12.77-10.04,14.42Z"/>
    <path class="cls-6" d="M396.95,280.56c.06,10.71-6.81,18.93-16.68,19.95-4.28,.44-6.27-1.21-6.22-5.4,.03-2.48,.3-4.96,.63-7.42,.54-4.02,1.37-8,1.77-12.03,.32-3.18-.82-5.71-4.4-6.33-6.16-1.06-11.35,2.12-12.85,8.19-1.25,5.07-2.2,10.23-3.18,15.36-1.99,10.43-3.89,20.88-10.2,29.82-3.39,4.79-7.39,8.85-13.21,10.62-6.78,2.06-13.5-.57-16.06-6.25-2.17-4.83-2.91-5.17-7.82-2.88-1.75,.82-3.47,1.91-4.86,3.22-7.34,6.93-8.84,15.72-7.58,25.24,1.84,13.91,12.27,22.8,26.26,22.2,13.27-.57,22.74-7.77,30.16-18.12,6.75-9.42,10.41-20.14,12.93-31.34,1.32-5.86,3.16-6.63,8.98-5.08,3.1,.83,6.47,1.44,9.63,1.14,22.2-2.07,38.2-18.95,38.41-41.29,.18-18.71-8.49-36.91-31.99-40.02-26.36-3.49-50.93,2.28-71.88,19.23-12.47,10.09-19.33,23.4-16.96,40.04,1.28,8.98,5.55,16.11,14.8,18.96,7.93,2.45,17.73-1.01,23.16-8,2.9-3.73,4.74-7.92,3.8-12.75-.22-1.13-1.41-2.54-2.31-2.96-3.2-1.49-5.3-3.46-5.8-6.98-1.14-7.96,2.87-14.9,11.58-19.54,9.31-4.97,19.39-7.21,29.86-7.14,13.03,.09,19.96,7.07,20.02,19.54Z"/>
    <path class="cls-6" d="M628.97,271.91c-2.84-1.05-4.83-.19-6.41,2.68-2.24,4.11-4.67,8.23-7.73,11.72-1.42,1.62-4.97,2.94-6.74,2.26-1.72-.66-3.38-4.04-3.36-6.22,.04-4.92,1.03-9.84,1.83-14.74,1.03-6.32,2.54-12.57,3.26-18.92,.37-3.32-.15-7.09-4.13-8.5-3.89-1.39-7.23,.07-9.9,2.96-1.23,1.33-2.31,2.88-3.08,4.51-1.22,2.59-2.46,5.25-3.1,8.02-1.73,7.51-3.03,15.12-4.74,22.63-1.55,6.78-5.25,10.22-11.2,10.97-3.96,.5-6.18-.78-6.82-4.65-.51-3.05-.54-6.24-.34-9.34,.5-7.55,1.75-15.07,1.79-22.61,.03-6.34-5.13-8.57-9.9-4.26-3.07,2.78-5.79,6.64-7.08,10.54-2.52,7.66-3.71,15.74-5.91,23.52-1.03,3.65-2.65,7.36-4.91,10.36-2.51,3.33-6.68,4.57-10.64,2.92-3.99-1.66-3.83-5.8-3.28-9.25,.93-5.79,2.48-11.48,3.72-17.22,.66-3.06,1.66-6.12,1.76-9.21,.22-6.64-4.31-9.33-10.11-6.06-2,1.13-3.66,2.93-5.29,4.61-2.45,2.52-4.85,2.75-8.1,1.24-2.86-1.33-6.19-2.29-9.31-2.27-8.66,.07-15.94,3.77-21.87,10-8.09,8.5-11.61,19.09-13.54,30.35-1.07,6.25-5.81,11.21-11.73,12.16-4.18,.67-7.17-.92-7.92-5.05-.65-3.54-.75-7.29-.42-10.89,1.49-16.23,5.69-31.89,10.21-47.48,.97-3.36,1.75-6.89,1.83-10.37,.11-4.92-3.66-7.79-8.14-5.87-3.03,1.3-6.23,3.79-7.76,6.61-2.65,4.87-4.78,10.27-5.88,15.69-3.73,18.45-7.06,36.99-10.25,55.55-1.62,9.45-2.14,19.03-.05,28.51,2.04,9.25,8.56,13.29,17.79,11.41,9.81-1.99,15.31-8.96,19.83-17.07,1.1-1.98,2.05-4.04,3.22-6.35,1.44,3.08,2.44,5.78,3.88,8.21,4.77,8.08,12.55,10.46,20.86,6.48,5.79-2.78,9.71-7.5,12.67-13,2.09-3.89,3.76-8.01,5.6-11.99,.92,3.61,1.46,7.28,2.79,10.65,3.31,8.4,10.94,11.38,19.26,7.82,5.45-2.33,9.01-6.64,11.81-11.64,1.5-2.67,2.75-5.49,4.25-8.5,5.1,13.27,15.29,17.05,26.48,10.18,4.65-2.85,7.75-6.98,9.69-12,.89-2.31,1.47-4.75,2.41-7.04,.28-.7,1.08-1.74,1.93-1.66,.95,.1,1.66,1.43,1.73,2.22,1.21,12.83-6.52,28.51-19.78,32.38-9.45,2.76-18.14-.08-21.07-9.46-.1-.31-.44-2.06-1.44-1.26-2.32,1.85-3.64,3.74-4.56,5.42-2.76,5.03-3.13,10.46-2.58,16.02,1.48,14.82,12.7,23.54,27.49,22.03,13.54-1.38,22.36-8.7,26.74-21.03,3.4-9.55,5.53-19.56,8.27-29.53,4.65,3.23,9.47,1.25,13-2.35,3.57-3.64,6.77-8.12,8.63-12.83,3.36-8.48,5.58-17.4,8.31-26.13,.77-2.47,.99-4.8-1.95-5.89Zm-133.18,33.33c-5.09,1.44-8.74-.62-10.15-5.75-1.76-6.39,1.43-13.87,7.12-16.7,7.1-3.53,13.09,.15,13.08,8.04-.01,6.67-4.27,12.77-10.04,14.42Z"/>
    <path class="cls-2" d="M390.05,271.66c.06,10.71-6.81,18.93-16.68,19.95-4.28,.44-6.27-1.21-6.22-5.4,.03-2.48,.3-4.96,.63-7.42,.54-4.02,1.37-8,1.77-12.03,.32-3.18-.82-5.71-4.4-6.33-6.16-1.06-11.35,2.12-12.85,8.19-1.25,5.07-2.2,10.23-3.18,15.36-1.99,10.43-3.89,20.88-10.2,29.82-3.39,4.79-7.39,8.85-13.21,10.62-6.78,2.06-13.5-.57-16.06-6.25-2.17-4.83-2.91-5.17-7.82-2.88-1.75,.82-3.47,1.91-4.86,3.22-7.34,6.93-8.84,15.72-7.58,25.24,1.84,13.91,12.27,22.8,26.26,22.2,13.27-.57,22.74-7.77,30.16-18.12,6.75-9.42,10.41-20.14,12.93-31.34,1.32-5.86,3.16-6.63,8.98-5.08,3.1,.83,6.47,1.44,9.63,1.14,22.2-2.07,38.2-18.95,38.41-41.29,.18-18.71-8.49-36.91-31.99-40.02-26.36-3.49-50.93,2.28-71.88,19.23-12.47,10.09-19.33,23.4-16.96,40.04,1.28,8.98,5.55,16.11,14.8,18.96,7.93,2.45,17.73-1.01,23.16-8,2.9-3.73,4.74-7.92,3.8-12.75-.22-1.13-1.41-2.54-2.31-2.96-3.2-1.49-5.3-3.46-5.8-6.98-1.14-7.96,2.87-14.9,11.58-19.54,9.31-4.97,19.39-7.21,29.86-7.14,13.03,.09,19.96,7.07,20.02,19.54Z"/>
    <path class="cls-2" d="M623.08,263.02c-2.84-1.05-4.83-.19-6.41,2.68-2.24,4.11-4.67,8.23-7.73,11.72-1.42,1.62-4.97,2.94-6.74,2.26-1.72-.66-3.38-4.04-3.36-6.22,.04-4.92,1.03-9.84,1.83-14.74,1.03-6.32,2.54-12.57,3.26-18.92,.37-3.32-.15-7.09-4.13-8.5-3.89-1.39-7.23,.07-9.9,2.96-1.23,1.33-2.31,2.88-3.08,4.51-1.22,2.59-2.46,5.25-3.1,8.02-1.73,7.51-3.03,15.12-4.74,22.63-1.55,6.78-5.25,10.22-11.2,10.97-3.96,.5-6.18-.78-6.82-4.65-.51-3.05-.54-6.24-.34-9.34,.5-7.55,1.75-15.07,1.79-22.61,.03-6.34-5.13-8.57-9.9-4.26-3.07,2.78-5.79,6.64-7.08,10.54-2.52,7.66-3.71,15.74-5.91,23.52-1.03,3.65-2.65,7.36-4.91,10.36-2.51,3.33-6.68,4.57-10.64,2.92-3.99-1.66-3.83-5.8-3.28-9.25,.93-5.79,2.48-11.48,3.72-17.22,.66-3.06,1.66-6.12,1.76-9.21,.22-6.64-4.31-9.33-10.11-6.06-2,1.13-3.66,2.93-5.29,4.61-2.45,2.52-4.85,2.75-8.1,1.24-2.86-1.33-6.19-2.29-9.31-2.27-8.66,.07-15.94,3.77-21.87,10-8.09,8.5-11.61,19.09-13.54,30.35-1.07,6.25-5.81,11.21-11.73,12.16-4.18,.67-7.17-.92-7.92-5.05-.65-3.54-.75-7.29-.42-10.89,1.49-16.23,5.69-31.89,10.21-47.48,.97-3.36,1.75-6.89,1.83-10.37,.11-4.92-3.66-7.79-8.14-5.87-3.03,1.3-6.23,3.79-7.76,6.61-2.65,4.87-4.78,10.27-5.88,15.69-3.73,18.45-7.06,36.99-10.25,55.55-1.62,9.45-2.14,19.03-.05,28.51,2.04,9.25,8.56,13.29,17.79,11.41,9.81-1.99,15.31-8.96,19.83-17.07,1.1-1.98,2.05-4.04,3.22-6.35,1.44,3.08,2.44,5.78,3.88,8.21,4.77,8.08,12.55,10.46,20.86,6.48,5.79-2.78,9.71-7.5,12.67-13,2.09-3.89,3.76-8.01,5.6-11.99,.92,3.61,1.46,7.28,2.79,10.65,3.31,8.4,10.94,11.38,19.26,7.82,5.45-2.33,9.01-6.64,11.81-11.64,1.5-2.67,2.75-5.49,4.25-8.5,5.1,13.27,15.29,17.05,26.48,10.18,4.65-2.85,7.75-6.98,9.69-12,.89-2.31,1.47-4.75,2.41-7.04,.28-.7,1.08-1.74,1.93-1.66,.95,.1,1.66,1.43,1.73,2.22,1.21,12.83-6.52,28.51-19.78,32.38-9.45,2.76-18.14-.08-21.07-9.46-.1-.31-.44-2.06-1.44-1.26-2.32,1.85-3.64,3.74-4.56,5.42-2.76,5.03-3.13,10.46-2.58,16.02,1.48,14.82,12.7,23.54,27.49,22.03,13.54-1.38,22.36-8.7,26.74-21.03,3.4-9.55,5.53-19.56,8.27-29.53,4.65,3.23,9.47,1.25,13-2.35,3.57-3.64,6.77-8.12,8.63-12.83,3.36-8.48,5.58-17.4,8.31-26.13,.77-2.47,.99-4.8-1.95-5.89Zm-133.18,33.33c-5.09,1.44-8.74-.62-10.15-5.75-1.76-6.39,1.43-13.87,7.12-16.7,7.1-3.53,13.09,.15,13.08,8.04-.01,6.67-4.27,12.77-10.04,14.42Z"/>
  </g>
</svg>