<svg width="34" height="33" viewBox="0 0 34 33" fill="none" xmlns="http://www.w3.org/2000/svg">
<path d="M14.3333 25.0001L11 23.3334M11 23.3334L1 28.3334V6.66675L11 1.66675M11 23.3334V1.66675M11 1.66675L21 6.66675M21 6.66675L31 1.66675V15.0001M21 6.66675V15.0001M29.6667 28.6667L32.6667 31.6667M21 25.0001C21 26.3262 21.5268 27.5979 22.4645 28.5356C23.4021 29.4733 24.6739 30.0001 26 30.0001C27.3261 30.0001 28.5979 29.4733 29.5355 28.5356C30.4732 27.5979 31 26.3262 31 25.0001C31 23.674 30.4732 22.4022 29.5355 21.4645C28.5979 20.5269 27.3261 20.0001 26 20.0001C24.6739 20.0001 23.4021 20.5269 22.4645 21.4645C21.5268 22.4022 21 23.674 21 25.0001Z" stroke="current" stroke-width="2" stroke-linecap="round" stroke-linejoin="round"/>
</svg>
